<mxfile host="app.diagrams.net" modified="2024-04-15T09:39:56.289Z" agent="Mozilla/5.0 (Windows NT 10.0; Win64; x64) AppleWebKit/537.36 (KHTML, like Gecko) Chrome/123.0.0.0 Safari/537.36" etag="vD_SOdzrwnFAWzt48Kje" version="24.2.5" type="device">
  <diagram name="Leht-1" id="dkb6yax0-j1HrngZPicy">
    <mxGraphModel dx="787" dy="983" grid="1" gridSize="10" guides="1" tooltips="1" connect="1" arrows="1" fold="1" page="1" pageScale="1" pageWidth="827" pageHeight="1169" math="0" shadow="0">
      <root>
        <mxCell id="0" />
        <mxCell id="1" parent="0" />
        <mxCell id="POr8CRxX0gT2LaUEEcbf-1" value="Start" style="ellipse;whiteSpace=wrap;html=1;" vertex="1" parent="1">
          <mxGeometry x="330" y="30" width="120" height="80" as="geometry" />
        </mxCell>
        <mxCell id="POr8CRxX0gT2LaUEEcbf-2" value="" style="endArrow=classic;html=1;rounded=0;exitX=0.5;exitY=1;exitDx=0;exitDy=0;" edge="1" parent="1" source="POr8CRxX0gT2LaUEEcbf-1">
          <mxGeometry width="50" height="50" relative="1" as="geometry">
            <mxPoint x="370" y="330" as="sourcePoint" />
            <mxPoint x="390" y="170" as="targetPoint" />
          </mxGeometry>
        </mxCell>
        <mxCell id="POr8CRxX0gT2LaUEEcbf-3" value="Input" style="shape=parallelogram;perimeter=parallelogramPerimeter;whiteSpace=wrap;html=1;fixedSize=1;" vertex="1" parent="1">
          <mxGeometry x="330" y="170" width="120" height="60" as="geometry" />
        </mxCell>
        <mxCell id="POr8CRxX0gT2LaUEEcbf-4" value="" style="endArrow=classic;html=1;rounded=0;exitX=0.5;exitY=1;exitDx=0;exitDy=0;" edge="1" parent="1" source="POr8CRxX0gT2LaUEEcbf-3">
          <mxGeometry width="50" height="50" relative="1" as="geometry">
            <mxPoint x="370" y="330" as="sourcePoint" />
            <mxPoint x="390" y="280" as="targetPoint" />
          </mxGeometry>
        </mxCell>
        <mxCell id="POr8CRxX0gT2LaUEEcbf-7" value="" style="edgeStyle=orthogonalEdgeStyle;rounded=0;orthogonalLoop=1;jettySize=auto;html=1;" edge="1" parent="1" source="POr8CRxX0gT2LaUEEcbf-5" target="POr8CRxX0gT2LaUEEcbf-6">
          <mxGeometry relative="1" as="geometry" />
        </mxCell>
        <mxCell id="POr8CRxX0gT2LaUEEcbf-5" value="Loop1" style="rounded=0;whiteSpace=wrap;html=1;" vertex="1" parent="1">
          <mxGeometry x="330" y="280" width="120" height="60" as="geometry" />
        </mxCell>
        <mxCell id="POr8CRxX0gT2LaUEEcbf-9" value="" style="edgeStyle=orthogonalEdgeStyle;rounded=0;orthogonalLoop=1;jettySize=auto;html=1;" edge="1" parent="1" source="POr8CRxX0gT2LaUEEcbf-6" target="POr8CRxX0gT2LaUEEcbf-8">
          <mxGeometry relative="1" as="geometry" />
        </mxCell>
        <mxCell id="POr8CRxX0gT2LaUEEcbf-20" style="edgeStyle=orthogonalEdgeStyle;rounded=0;orthogonalLoop=1;jettySize=auto;html=1;exitX=0.25;exitY=1;exitDx=0;exitDy=0;entryX=0.5;entryY=1;entryDx=0;entryDy=0;" edge="1" parent="1" source="POr8CRxX0gT2LaUEEcbf-6" target="POr8CRxX0gT2LaUEEcbf-5">
          <mxGeometry relative="1" as="geometry">
            <mxPoint x="380" y="350" as="targetPoint" />
            <Array as="points">
              <mxPoint x="560" y="360" />
              <mxPoint x="456" y="360" />
              <mxPoint x="456" y="370" />
              <mxPoint x="381" y="370" />
              <mxPoint x="381" y="340" />
            </Array>
          </mxGeometry>
        </mxCell>
        <mxCell id="POr8CRxX0gT2LaUEEcbf-6" value="Loop2" style="whiteSpace=wrap;html=1;rounded=0;" vertex="1" parent="1">
          <mxGeometry x="530" y="280" width="120" height="60" as="geometry" />
        </mxCell>
        <mxCell id="POr8CRxX0gT2LaUEEcbf-16" value="" style="edgeStyle=orthogonalEdgeStyle;rounded=0;orthogonalLoop=1;jettySize=auto;html=1;" edge="1" parent="1" source="POr8CRxX0gT2LaUEEcbf-8">
          <mxGeometry relative="1" as="geometry">
            <mxPoint x="790" y="420" as="targetPoint" />
          </mxGeometry>
        </mxCell>
        <mxCell id="POr8CRxX0gT2LaUEEcbf-8" value="IF-statement" style="whiteSpace=wrap;html=1;rounded=0;" vertex="1" parent="1">
          <mxGeometry x="730" y="280" width="120" height="60" as="geometry" />
        </mxCell>
        <mxCell id="POr8CRxX0gT2LaUEEcbf-17" value="End" style="ellipse;whiteSpace=wrap;html=1;" vertex="1" parent="1">
          <mxGeometry x="730" y="420" width="120" height="80" as="geometry" />
        </mxCell>
        <mxCell id="POr8CRxX0gT2LaUEEcbf-18" value="" style="curved=1;endArrow=classic;html=1;rounded=0;exitX=0.5;exitY=1;exitDx=0;exitDy=0;entryX=0.5;entryY=1;entryDx=0;entryDy=0;" edge="1" parent="1" source="POr8CRxX0gT2LaUEEcbf-8" target="POr8CRxX0gT2LaUEEcbf-6">
          <mxGeometry width="50" height="50" relative="1" as="geometry">
            <mxPoint x="600" y="230" as="sourcePoint" />
            <mxPoint x="650" y="180" as="targetPoint" />
            <Array as="points">
              <mxPoint x="680" y="360" />
              <mxPoint x="580" y="480" />
            </Array>
          </mxGeometry>
        </mxCell>
      </root>
    </mxGraphModel>
  </diagram>
</mxfile>
